<?xml version="1.0" encoding="UTF-8" standalone="no"?>
<!-- Created with Inkscape (http://www.inkscape.org/) -->

<svg
   xmlns:dc="http://purl.org/dc/elements/1.1/"
   xmlns:cc="http://creativecommons.org/ns#"
   xmlns:rdf="http://www.w3.org/1999/02/22-rdf-syntax-ns#"
   xmlns:svg="http://www.w3.org/2000/svg"
   xmlns="http://www.w3.org/2000/svg"
   xmlns:sodipodi="http://sodipodi.sourceforge.net/DTD/sodipodi-0.dtd"
   xmlns:inkscape="http://www.inkscape.org/namespaces/inkscape"
   id="svg3020"
   version="1.1"
   inkscape:version="0.48.1 r9760"
   width="436.40286"
   height="342.01074"
   xml:space="preserve"
   sodipodi:docname="GUIDE3D-COLOR.pdf"><metadata
     id="metadata3026"><rdf:RDF><cc:Work
         rdf:about=""><dc:format>image/svg+xml</dc:format><dc:type
           rdf:resource="http://purl.org/dc/dcmitype/StillImage" /><dc:title></dc:title></cc:Work></rdf:RDF></metadata><defs
     id="defs3024"><clipPath
       clipPathUnits="userSpaceOnUse"
       id="clipPath3040"><path
         d="m 0,595.276 841.89,0 L 841.89,0 0,0 0,595.276 z"
         id="path3042"
         inkscape:connector-curvature="0" /></clipPath><clipPath
       clipPathUnits="userSpaceOnUse"
       id="clipPath3048"><path
         d="m 0,0 841.89,0 0,595.276 L 0,595.276 0,0 z"
         id="path3050"
         inkscape:connector-curvature="0" /></clipPath><clipPath
       clipPathUnits="userSpaceOnUse"
       id="clipPath3080"><path
         d="m 0,0 841.89,0 0,595.276 L 0,595.276 0,0 z"
         id="path3082"
         inkscape:connector-curvature="0" /></clipPath><clipPath
       clipPathUnits="userSpaceOnUse"
       id="clipPath3122"><path
         d="m 0,0 841.89,0 0,595.276 L 0,595.276 0,0 z"
         id="path3124"
         inkscape:connector-curvature="0" /></clipPath><clipPath
       clipPathUnits="userSpaceOnUse"
       id="clipPath3266"><path
         d="m 452.781,125.103 346.273,0 0,264 -346.273,0 0,-264 z"
         id="path3268"
         inkscape:connector-curvature="0" /></clipPath><clipPath
       clipPathUnits="userSpaceOnUse"
       id="clipPath3282"><path
         d="m 452.781,125.103 346.273,0 0,264 -346.273,0 0,-264 z"
         id="path3284"
         inkscape:connector-curvature="0" /></clipPath><clipPath
       clipPathUnits="userSpaceOnUse"
       id="clipPath3534"><path
         d="m 452.781,125.103 346.273,0 0,264 -346.273,0 0,-264 z"
         id="path3536"
         inkscape:connector-curvature="0" /></clipPath><clipPath
       clipPathUnits="userSpaceOnUse"
       id="clipPath3706"><path
         d="m 452.781,125.103 346.273,0 0,264 -346.273,0 0,-264 z"
         id="path3708"
         inkscape:connector-curvature="0" /></clipPath><clipPath
       clipPathUnits="userSpaceOnUse"
       id="clipPath3858"><path
         d="m 452.781,125.103 346.273,0 0,264 -346.273,0 0,-264 z"
         id="path3860"
         inkscape:connector-curvature="0" /></clipPath><clipPath
       clipPathUnits="userSpaceOnUse"
       id="clipPath4066"><path
         d="m 452.781,125.103 346.273,0 0,264 -346.273,0 0,-264 z"
         id="path4068"
         inkscape:connector-curvature="0" /></clipPath><clipPath
       clipPathUnits="userSpaceOnUse"
       id="clipPath4126"><path
         d="m 452.781,125.103 346.273,0 0,264 -346.273,0 0,-264 z"
         id="path4128"
         inkscape:connector-curvature="0" /></clipPath><clipPath
       clipPathUnits="userSpaceOnUse"
       id="clipPath4146"><path
         d="m 452.781,125.103 346.273,0 0,264 -346.273,0 0,-264 z"
         id="path4148"
         inkscape:connector-curvature="0" /></clipPath><clipPath
       clipPathUnits="userSpaceOnUse"
       id="clipPath4244"><path
         d="m 72.945,323.951 0,-287.451 333.543,0 c 4.394,0 7.957,3.416 7.957,7.63 l 0,0 0,279.821 -341.5,0 z"
         id="path4246"
         inkscape:connector-curvature="0" /></clipPath><clipPath
       clipPathUnits="userSpaceOnUse"
       id="clipPath4330"><path
         d="m 0,0 841.89,0 0,595.276 L 0,595.276 0,0 z"
         id="path4332"
         inkscape:connector-curvature="0" /></clipPath><clipPath
       clipPathUnits="userSpaceOnUse"
       id="clipPath4374"><path
         d="m 0,0 841.89,0 0,595.276 L 0,595.276 0,0 z"
         id="path4376"
         inkscape:connector-curvature="0" /></clipPath></defs><sodipodi:namedview
     pagecolor="#ffffff"
     bordercolor="#666666"
     borderopacity="1"
     objecttolerance="10"
     gridtolerance="10"
     guidetolerance="10"
     inkscape:pageopacity="0"
     inkscape:pageshadow="2"
     inkscape:window-width="1366"
     inkscape:window-height="744"
     id="namedview3022"
     showgrid="false"
     fit-margin-top="10"
     fit-margin-left="10"
     fit-margin-right="10"
     fit-margin-bottom="10"
     inkscape:zoom="1.1669574"
     inkscape:cx="183.97666"
     inkscape:cy="142.64947"
     inkscape:window-x="0"
     inkscape:window-y="0"
     inkscape:window-maximized="1"
     inkscape:current-layer="g3028" /><g
     id="g3028"
     inkscape:groupmode="layer"
     inkscape:label="GUIDE3D-COLOR"
     transform="matrix(1.25,0,0,-1.25,-561.08389,490.08711)"><path
       style="fill:none;stroke:#000000;stroke-width:3.20000005;stroke-linecap:butt;stroke-linejoin:miter;stroke-miterlimit:4;stroke-opacity:1;stroke-dasharray:none"
       d="m 476.99638,378.59166 c 3.14512,-16.02803 11.69258,-31.72289 8.4133,-48.40709 -2.09154,-16.70687 -2.33593,-33.61409 -0.71069,-50.34436 -0.73201,-15.05199 -6.63398,-30.88989 0.27455,-45.37849 5.15153,-18.37539 5.93127,-37.60185 9.46196,-56.30276 1.76001,-12.68655 1.61922,-27.03884 13.12641,-35.40865 7.64321,-6.08157 16.13815,-12.29378 25.9163,-14.15413 15.57515,-2.11108 26.85686,12.99864 28.91247,26.89793 4.67575,23.05188 -6.74212,46.92797 1.97784,69.4586 1.84628,12.78239 5.09666,25.6152 12.15726,36.55691 5.66839,15.41158 3.76976,32.22985 6.12382,48.18524 -1.15591,16.70918 -6.63918,33.18461 -5.10772,50.00434 1.46006,7.57697 3.28614,14.99281 2.70675,22.77049"
       id="path4388"
       inkscape:connector-curvature="0" /><g
       id="g3034"><g
         id="g3036"><g
           id="g3038"
           clip-path="url(#clipPath3040)" /></g></g><g
       id="g3234"
       transform="translate(492.2916,206.2588)"><path
         d="M 0,0 -0.396,-2.774 0.397,-5.748"
         style="fill:none;stroke:#000000;stroke-width:0.465;stroke-linecap:butt;stroke-linejoin:miter;stroke-miterlimit:10;stroke-opacity:1;stroke-dasharray:none"
         id="path3236"
         inkscape:connector-curvature="0" /></g><g
       id="g3238"
       transform="translate(489.5168,219.1435)"><path
         d="M 0,0 0.991,-4.955 1.189,-8.722"
         style="fill:none;stroke:#000000;stroke-width:0.465;stroke-linecap:butt;stroke-linejoin:miter;stroke-miterlimit:10;stroke-opacity:1;stroke-dasharray:none"
         id="path3240"
         inkscape:connector-curvature="0" /></g><g
       id="g3242"
       transform="translate(494.0761,193.9693)"><path
         d="m 0,0 0.99,-5.154 0.397,-3.368 0.198,-2.777"
         style="fill:none;stroke:#000000;stroke-width:0.465;stroke-linecap:butt;stroke-linejoin:miter;stroke-miterlimit:10;stroke-opacity:1;stroke-dasharray:none"
         id="path3244"
         inkscape:connector-curvature="0" /></g><g
       id="g3334"
       transform="translate(517.8621,221.1252)"><path
         d="M 0,0 0.991,-1.784"
         style="fill:none;stroke:#000000;stroke-width:0.465;stroke-linecap:butt;stroke-linejoin:miter;stroke-miterlimit:10;stroke-opacity:1;stroke-dasharray:none"
         id="path3336"
         inkscape:connector-curvature="0" /></g><text
       transform="matrix(1,0,0,-1,620.1628,315.5171)"
       id="text4166"><tspan
         style="font-size:11.16469955px;font-variant:normal;font-weight:bold;font-stretch:normal;writing-mode:lr-tb;fill:#00bc9b;fill-opacity:1;fill-rule:nonzero;stroke:none;font-family:Open Sans;-inkscape-font-specification:OpenSans-Bold"
         x="0"
         y="0"
         id="tspan4168">a</tspan><tspan
         style="font-size:11.16469955px;font-variant:normal;font-weight:bold;font-stretch:normal;writing-mode:lr-tb;fill:#00bc9b;fill-opacity:1;fill-rule:nonzero;stroke:none;font-family:Open Sans;-inkscape-font-specification:OpenSans-Bold"
         x="162.53571"
         y="8.7196302"
         id="tspan4170">j</tspan><tspan
         style="font-size:11.16469955px;font-variant:normal;font-weight:bold;font-stretch:normal;writing-mode:lr-tb;fill:#00bc9b;fill-opacity:1;fill-rule:nonzero;stroke:none;font-family:Open Sans;-inkscape-font-specification:OpenSans-Bold"
         x="163.3284"
         y="82.060547"
         id="tspan4172">h</tspan><tspan
         style="font-size:11.16469955px;font-variant:normal;font-weight:bold;font-stretch:normal;writing-mode:lr-tb;fill:#00bc9b;fill-opacity:1;fill-rule:nonzero;stroke:none;font-family:Open Sans;-inkscape-font-specification:OpenSans-Bold"
         x="163.3284"
         y="139.14566"
         id="tspan4174">e</tspan><tspan
         style="font-size:11.16469955px;font-variant:normal;font-weight:bold;font-stretch:normal;writing-mode:lr-tb;fill:#00bc9b;fill-opacity:1;fill-rule:nonzero;stroke:none;font-family:Open Sans;-inkscape-font-specification:OpenSans-Bold"
         x="0"
         y="50.341633"
         id="tspan4176">b</tspan><tspan
         style="font-size:11.16469955px;font-variant:normal;font-weight:bold;font-stretch:normal;writing-mode:lr-tb;fill:#00bc9b;fill-opacity:1;fill-rule:nonzero;stroke:none;font-family:Open Sans;-inkscape-font-specification:OpenSans-Bold"
         x="-163.3284"
         y="71.744362"
         id="tspan4178">c</tspan><tspan
         style="font-size:11.16469955px;font-variant:normal;font-weight:bold;font-stretch:normal;writing-mode:lr-tb;fill:#00bc9b;fill-opacity:1;fill-rule:nonzero;stroke:none;font-family:Open Sans;-inkscape-font-specification:OpenSans-Bold"
         x="-163.3284"
         y="90.378242"
         id="tspan4180">i</tspan><tspan
         style="font-size:11.16469955px;font-variant:normal;font-weight:bold;font-stretch:normal;writing-mode:lr-tb;fill:#00bc9b;fill-opacity:1;fill-rule:nonzero;stroke:none;font-family:Open Sans;-inkscape-font-specification:OpenSans-Bold"
         x="-163.3284"
         y="124.47524"
         id="tspan4182">d</tspan><tspan
         style="font-size:11.16469955px;font-variant:normal;font-weight:bold;font-stretch:normal;writing-mode:lr-tb;fill:#00bc9b;fill-opacity:1;fill-rule:nonzero;stroke:none;font-family:Open Sans;-inkscape-font-specification:OpenSans-Bold"
         x="-163.3284"
         y="161.74301"
         id="tspan4184">g</tspan><tspan
         style="font-size:11.16469955px;font-variant:normal;font-weight:bold;font-stretch:normal;writing-mode:lr-tb;fill:#00bc9b;fill-opacity:1;fill-rule:nonzero;stroke:none;font-family:Open Sans;-inkscape-font-specification:OpenSans-Bold"
         x="0"
         y="176.41342"
         id="tspan4186">f</tspan></text>
<g
       id="g4188"
       transform="translate(558.6832,317.113)"><path
         d="M 0,0 53.963,0"
         style="fill:none;stroke:#00bc9b;stroke-width:0.93000001;stroke-linecap:butt;stroke-linejoin:miter;stroke-miterlimit:10;stroke-opacity:1;stroke-dasharray:none"
         id="path4190"
         inkscape:connector-curvature="0" /></g><g
       id="g4192"
       transform="translate(466.574,248.2638)"><path
         d="M 0,0 13.026,0"
         style="fill:none;stroke:#00bc9b;stroke-width:0.93000001;stroke-linecap:butt;stroke-linejoin:miter;stroke-miterlimit:10;stroke-opacity:1;stroke-dasharray:none"
         id="path4194"
         inkscape:connector-curvature="0" /></g><g
       id="g4196"
       transform="translate(466.574,227.7951)"><path
         d="M 0,0 26.511,0 43.122,20.746"
         style="fill:none;stroke:#00bc9b;stroke-width:0.93000001;stroke-linecap:butt;stroke-linejoin:miter;stroke-miterlimit:10;stroke-opacity:1;stroke-dasharray:none"
         id="path4198"
         inkscape:connector-curvature="0" /></g><g
       id="g4200"
       transform="translate(469.3652,155.2243)"><path
         d="M 0,0 26.981,0"
         style="fill:none;stroke:#00bc9b;stroke-width:0.93000001;stroke-linecap:butt;stroke-linejoin:miter;stroke-miterlimit:10;stroke-opacity:1;stroke-dasharray:none"
         id="path4202"
         inkscape:connector-curvature="0" /></g><g
       id="g4204"
       transform="translate(466.574,195.2313)"><path
         d="M 0,0 64.197,0"
         style="fill:none;stroke:#00bc9b;stroke-width:0.93000001;stroke-linecap:butt;stroke-linejoin:miter;stroke-miterlimit:10;stroke-opacity:1;stroke-dasharray:none"
         id="path4206"
         inkscape:connector-curvature="0" /></g><g
       id="g4208"
       transform="translate(634.9756,317.113)"><path
         d="M 0,0 24.19,0"
         style="fill:none;stroke:#00bc9b;stroke-width:0.93000001;stroke-linecap:butt;stroke-linejoin:miter;stroke-miterlimit:10;stroke-opacity:1;stroke-dasharray:none"
         id="path4210"
         inkscape:connector-curvature="0" /></g><g
       id="g4212"
       transform="translate(638.6971,268.7325)"><path
         d="M 0,0 37.216,0"
         style="fill:none;stroke:#00bc9b;stroke-width:0.93000001;stroke-linecap:butt;stroke-linejoin:miter;stroke-miterlimit:10;stroke-opacity:1;stroke-dasharray:none"
         id="path4214"
         inkscape:connector-curvature="0" /></g><g
       id="g4216"
       transform="translate(712.1984,179.4146)"><path
         d="M 0,0 65.128,0"
         style="fill:none;stroke:#00bc9b;stroke-width:0.93000001;stroke-linecap:butt;stroke-linejoin:miter;stroke-miterlimit:10;stroke-opacity:1;stroke-dasharray:none"
         id="path4218"
         inkscape:connector-curvature="0" /></g><g
       id="g4220"
       transform="translate(730.8063,237.099)"><path
         d="M 0,0 46.52,0"
         style="fill:none;stroke:#00bc9b;stroke-width:0.93000001;stroke-linecap:butt;stroke-linejoin:miter;stroke-miterlimit:10;stroke-opacity:1;stroke-dasharray:none"
         id="path4222"
         inkscape:connector-curvature="0" /></g><g
       id="g4224"
       transform="translate(777.326,310.6003)"><path
         d="M 0,0 -40.035,0 -56.093,27.354"
         style="fill:none;stroke:#00bc9b;stroke-width:0.93000001;stroke-linecap:butt;stroke-linejoin:miter;stroke-miterlimit:10;stroke-opacity:1;stroke-dasharray:none"
         id="path4226"
         inkscape:connector-curvature="0" /></g><g
       id="g4228"
       transform="translate(547.5184,270.5933)"><path
         d="M 0,0 64.197,0"
         style="fill:none;stroke:#00bc9b;stroke-width:0.93000001;stroke-linecap:butt;stroke-linejoin:miter;stroke-miterlimit:10;stroke-opacity:1;stroke-dasharray:none"
         id="path4230"
         inkscape:connector-curvature="0" /></g><g
       id="g4232"
       transform="translate(555.892,141.2683)"><path
         d="M 0,0 55.824,0"
         style="fill:none;stroke:#00bc9b;stroke-width:0.93000001;stroke-linecap:butt;stroke-linejoin:miter;stroke-miterlimit:10;stroke-opacity:1;stroke-dasharray:none"
         id="path4234"
         inkscape:connector-curvature="0" /></g><g
       id="g4236"
       transform="translate(634.9756,141.2683)"><path
         d="M 0,0 51.172,0"
         style="fill:none;stroke:#00bc9b;stroke-width:0.93000001;stroke-linecap:butt;stroke-linejoin:miter;stroke-miterlimit:10;stroke-opacity:1;stroke-dasharray:none"
         id="path4238"
         inkscape:connector-curvature="0" /></g><path
       style="fill:none;stroke:#000000;stroke-width:3.20000005;stroke-linecap:butt;stroke-linejoin:miter;stroke-miterlimit:4;stroke-opacity:1;stroke-dasharray:none"
       d="m 663.14132,381.50018 c 1.95357,-14.94009 6.197,-30.55266 0.59851,-45.25626 -4.5422,-16.44183 -4.66139,-35.14013 5.18243,-49.78031 7.22748,-9.6825 10.74519,-21.35417 9.15922,-33.37472 -0.12029,-9.30029 4.40479,-17.75264 4.5308,-27.05579 1.66559,-20.25868 5.93894,-40.30238 5.04082,-60.73483 1.30266,-10.90583 -5.35619,-25.31922 5.73544,-32.79067 8.0164,-6.24878 18.31988,-4.13131 26.77488,-0.23003 10.21673,4.12149 22.23469,9.14182 25.70159,20.66349 5.22927,13.48796 7.97248,27.78422 12.25096,41.57158 3.99565,21.09402 0.76369,42.58662 -0.50581,63.77012 -0.91283,14.41068 5.98288,27.71155 6.40634,42.02456 2.36965,23.59369 -1.74734,47.15704 -1.77326,70.725 0.0908,3.81246 0.18155,7.62491 0.27232,11.43737"
       id="path4390"
       inkscape:connector-curvature="0" /><path
       style="fill:none;stroke:#ff0000;stroke-width:2.4000001;stroke-linecap:butt;stroke-linejoin:miter;stroke-miterlimit:4;stroke-opacity:1;stroke-dasharray:none"
       d="m 709.1928,341.26573 c 9.79151,4.11522 17.24129,3.37552 25.20712,-0.96951"
       id="path4392"
       inkscape:connector-curvature="0"
       sodipodi:nodetypes="cc" /><path
       style="fill:none;stroke:#ff0000;stroke-width:2.4000001;stroke-linecap:butt;stroke-linejoin:miter;stroke-miterlimit:4;stroke-opacity:1;stroke-dasharray:none"
       d="m 666.53458,342.71998 c 1.61584,-1.61584 3.23168,-3.23168 4.84752,-4.84752 1.30886,-6.63796 3.38421,-13.23616 3.08492,-20.07722 0.27784,-5.83271 0.50253,-11.7417 -0.71156,-17.493 -0.41533,-2.47929 -0.40258,-5.12208 -1.44189,-7.43847 -0.95682,-1.64027 -1.91365,-3.28054 -2.87047,-4.92081 -2.46847,4.01646 -5.63576,7.76591 -6.73843,12.4571 -1.4038,3.59274 -2.42492,7.40342 -2.22326,11.29082 -0.17026,4.98826 -0.48563,10.01125 -0.11845,14.98641 1.63285,5.50093 4.07865,10.71117 6.17162,16.04269 z"
       id="path4394"
       inkscape:connector-curvature="0" /><path
       style="fill:none;stroke:#ff0000;stroke-width:3;stroke-linecap:butt;stroke-linejoin:miter;stroke-miterlimit:4;stroke-opacity:1;stroke-dasharray:none"
       d="m 847.10486,407.79798 7.87723,0 1.6603,-0.16067"
       id="path4396"
       inkscape:connector-curvature="0"
       transform="matrix(0.8,0,0,-0.8,0,595.276)"
       sodipodi:nodetypes="ccc" /><path
       style="fill:none;stroke:#ff0000;stroke-width:3;stroke-linecap:butt;stroke-linejoin:miter;stroke-miterlimit:4;stroke-opacity:1;stroke-dasharray:none"
       d="m 856.79991,399.92075 0,11.51287"
       id="path4398"
       inkscape:connector-curvature="0"
       transform="matrix(0.8,0,0,-0.8,0,595.276)" /><path
       style="fill:none;stroke:#ff0000;stroke-width:3;stroke-linecap:butt;stroke-linejoin:miter;stroke-miterlimit:4;stroke-opacity:1;stroke-dasharray:none"
       d="m 921.02961,441.73065 -11.51287,4.84752 -9.08911,-0.60594 -5.45347,1.21188 -6.66534,5.45347 -2.42376,7.87722 0.60594,17.57228 -1.81783,26.66138 0,29.69109 -2.42376,48.47524"
       id="path4400"
       inkscape:connector-curvature="0"
       transform="matrix(0.8,0,0,-0.8,0,595.276)" /><path
       style="fill:none;stroke:#ff0000;stroke-width:2.4000001;stroke-linecap:butt;stroke-linejoin:miter;stroke-miterlimit:4;stroke-opacity:1;stroke-dasharray:none"
       d="m 687.37894,146.39526 c 1.61584,-0.48475 3.23168,-0.96951 4.84752,-1.45426 2.1627,-2.62547 4.59995,-5.0335 6.57133,-7.8104 1.36441,-2.72881 2.72882,-5.45762 4.09323,-8.18643 -2.58535,0.32317 -5.17069,0.64633 -7.75604,0.9695 -2.29647,2.55717 -4.79889,4.94217 -6.95805,7.61436 -0.58917,1.17831 -1.17833,2.35663 -1.7675,3.53495 0.32317,1.77743 0.64634,3.55485 0.96951,5.33228 z"
       id="path4402"
       inkscape:connector-curvature="0" /><path
       style="fill:none;stroke:#ff0000;stroke-width:2.4000001;stroke-linecap:butt;stroke-linejoin:miter;stroke-miterlimit:4;stroke-opacity:1;stroke-dasharray:none"
       d="m 523.53262,132.33743 c 0,2.26218 0,4.52436 0,6.78654 3.3888,4.63149 6.19598,9.92175 11.01525,13.2732 2.38658,2.76736 5.6133,0.66483 8.37484,-0.18488 4.09733,-4.06063 7.557,-8.72617 10.45819,-13.70305 0.39196,-0.60301 0.78392,-1.20602 1.17588,-1.80903 -5.33338,-3.20215 -10.44079,-6.92586 -16.34611,-9.03564 -2.43349,-0.0694 -4.72326,0.92234 -7.09402,1.29798 -2.64424,0.8478 -5.04633,2.27409 -7.58403,3.37488 z"
       id="path4404"
       inkscape:connector-curvature="0"
       sodipodi:nodetypes="ccccccccc" /><path
       style="fill:none;stroke:#ff0000;stroke-width:2.4000001;stroke-linecap:butt;stroke-linejoin:miter;stroke-miterlimit:4;stroke-opacity:1;stroke-dasharray:none"
       d="m 564.73658,230.25742 c -3.07077,-3.45931 -7.37549,-6.14448 -8.85449,-10.75567 -1.84316,-2.95965 -3.20558,-6.34827 -2.74545,-9.88913 0.15021,-18.32552 0.30042,-36.65105 0.45063,-54.97657 0.64634,-2.42376 1.29267,-4.84753 1.93901,-7.27129 -1.13109,-1.93901 -2.26218,-3.87802 -3.39327,-5.81703"
       id="path4406"
       inkscape:connector-curvature="0" /><path
       style="fill:none;stroke:#ff0000;stroke-width:2.4000001;stroke-linecap:butt;stroke-linejoin:miter;stroke-miterlimit:4;stroke-opacity:1;stroke-dasharray:none"
       d="m 495.90173,167.23961 c 10.56813,-7.06762 6.75975,-9.23552 7.03621,-20.20982 -1.32196,1.63988 -2.05622,3.51843 -3.25539,5.24446 -0.61395,0.94885 -1.95504,3.10958 -2.56899,4.05843 -0.16156,3.71644 -1.05034,7.19049 -1.21183,10.90693 z"
       id="path4408"
       inkscape:connector-curvature="0"
       sodipodi:nodetypes="ccccc" /><path
       style="fill:none;stroke:#ff0000;stroke-width:2.4000001;stroke-linecap:butt;stroke-linejoin:miter;stroke-miterlimit:4;stroke-opacity:1;stroke-dasharray:none"
       d="m 484.9948,261.52396 c 1.3154,-1.5954 3.12066,-3.00375 3.52677,-5.14476 0.25599,-3.45277 0.0333,-6.91548 0.10304,-10.37257 -0.83115,-2.04355 -2.20305,-3.79905 -3.19454,-5.75951 -0.67976,-0.54049 -1.86146,-1.25013 -2.61532,-0.94879 -0.36279,0.96845 -1.05079,2.03155 -1.36399,3.01677 -0.50742,2.40566 -0.42268,4.79364 -1.38206,7.06188 0.41258,2.90266 0.90682,5.87147 2.26368,8.50249 0.74489,1.31206 1.6894,2.4965 2.66242,3.64449 z"
       id="path4410"
       inkscape:connector-curvature="0"
       sodipodi:nodetypes="ccccccccc" /><path
       style="fill:none;stroke:#ff0000;stroke-width:2.4000001;stroke-linecap:butt;stroke-linejoin:miter;stroke-miterlimit:4;stroke-opacity:1;stroke-dasharray:none"
       d="m 504.62727,258.85782 c 6.16107,2.44175 13.20059,0.55813 18.58682,-2.79937 4.18776,-4.7901 -2.40322,-12.86246 -8.04132,-9.99607 -3.65728,1.66207 -6.81087,4.24235 -10.41674,6.01045 -2.98783,1.50901 -3.26619,5.20311 -0.12876,6.78499 z"
       id="path4412"
       inkscape:connector-curvature="0" /><path
       style="fill:none;stroke:#ff0000;stroke-width:2.4000001;stroke-linecap:butt;stroke-linejoin:miter;stroke-miterlimit:4;stroke-opacity:1;stroke-dasharray:none"
       d="m 523.04786,255.9493 c 4.32333,-1.68103 11.87807,-2.63195 11.02995,-8.92339 -0.21994,-12.80602 1.30576,-21.63353 1.39759,-34.45181 0.61647,-7.71343 0.91234,-17.32633 0.43422,-24.4481 0.39869,-11.16331 0.79738,-22.32663 1.19607,-33.48995"
       id="path4414"
       inkscape:connector-curvature="0"
       sodipodi:nodetypes="ccccc" /><path
       style="fill:none;stroke:#ff0000;stroke-width:2.4000001;stroke-linecap:butt;stroke-linejoin:miter;stroke-miterlimit:4;stroke-opacity:1;stroke-dasharray:none"
       d="m 515.29182,245.7695 c 3.37028,-5.43008 7.70246,-10.48416 9.10572,-16.88348 2.86411,-8.86544 2.03739,-18.32764 3.05365,-27.47367 0.91375,-14.59092 2.30879,-29.19025 2.19373,-43.81879 -0.0984,-3.24802 -0.19685,-6.49603 -0.29527,-9.74405"
       id="path4416"
       inkscape:connector-curvature="0" /><path
       style="fill:none;stroke:#ff0000;stroke-width:3;stroke-linecap:butt;stroke-linejoin:miter;stroke-miterlimit:4;stroke-opacity:1;stroke-dasharray:none"
       d="m 651.99201,401.73857 0,12.72475"
       id="path4418"
       inkscape:connector-curvature="0"
       transform="matrix(0.8,0,0,-0.8,0,595.276)" /><path
       style="fill:none;stroke:#ff0000;stroke-width:3;stroke-linecap:butt;stroke-linejoin:miter;stroke-miterlimit:4;stroke-opacity:1;stroke-dasharray:none"
       d="m 651.99201,407.79798 30.90297,0.60594"
       id="path4420"
       inkscape:connector-curvature="0"
       transform="matrix(0.8,0,0,-0.8,0,595.276)" /><path
       style="fill:none;stroke:#ff0000;stroke-width:3;stroke-linecap:butt;stroke-linejoin:miter;stroke-miterlimit:4;stroke-opacity:1;stroke-dasharray:none"
       d="m 682.89498,399.92075 0.60594,15.75445"
       id="path4422"
       inkscape:connector-curvature="0"
       transform="matrix(0.8,0,0,-0.8,0,595.276)" /><path
       style="fill:none;stroke:#ff0000;stroke-width:2.4000001;stroke-linecap:butt;stroke-linejoin:miter;stroke-miterlimit:4;stroke-opacity:1;stroke-dasharray:none"
       d="m 529.8344,343.6895 c 24.14311,0.53236 32.94025,-13.52651 25.00343,-40.92033 -2.4964,-4.79395 -4.99638,-9.97322 -9.45504,-13.24755 -6.55075,-4.00444 -15.14818,-3.07413 -21.65572,0.53307 -5.67987,3.30639 -9.56245,9.16527 -11.12866,15.47735 -3.48548,10.36971 -2.95696,22.79775 3.95438,31.67534 3.26855,3.84673 8.11791,6.66955 13.28161,6.48212 z"
       id="path4424"
       inkscape:connector-curvature="0"
       sodipodi:nodetypes="ccccccc" /></g></svg>